<svg id="Layer_1" viewBox="0 0 24 24" xmlns="http://www.w3.org/2000/svg" data-name="Layer 1"><path d="m7 20v-1c-1.654 0-3-1.346-3-3h2c0 .551.448 1 1 1h2.376c.344 0 .624-.28.624-.624 0-.307-.22-.565-.521-.616l-3.285-.548c-1.271-.211-2.193-1.3-2.193-2.588 0-1.447 1.177-2.624 2.624-2.624h.376v-1h2v1h1v2h-3.376c-.344 0-.624.28-.624.624 0 .307.22.565.521.616l3.285.548c1.271.211 2.193 1.3 2.193 2.588 0 1.447-1.177 2.624-2.624 2.624h-.376v1zm15-20v1.534c-1.078-.97-2.482-1.534-4-1.534-2.967 0-5.431 2.167-5.91 5h2.052c.447-1.72 1.999-3 3.858-3 1 0 1.928.367 2.644 1h-1.644v2h5v-5zm-4 10c-.994 0-1.929-.368-2.646-1h1.646v-2h-5v5h2v-1.531c1.08.966 2.494 1.531 4 1.531 2.967 0 5.431-2.167 5.91-5h-2.052c-.447 1.72-1.999 3-3.858 3zm1 7h-3v-3h-2v8h-12v-14c0-.551.448-1 1-1h7v-2h-3v-2c0-.551.448-1 1-1h3.079c.437-.754.992-1.428 1.642-2h-4.721c-1.654 0-3 1.346-3 3v2h-2c-1.654 0-3 1.346-3 3v16h16v-5h5v-5.587c-.631.256-1.301.431-2 .518z"/></svg>